<svg xmlns="http://www.w3.org/2000/svg" width="404.5" height="32.8" xmlns:v="https://vecta.io/nano"><path d="M198.1 12v.7c-.5 0-1.2-.1-1.5.5l-3.6 5.6-.4.5v3.6c.2.4 0 1.1.5 1.2s1.1 0 1.5.1v.7h-6.4v-.6c.5-.1 1.4.3 1.5-.5v-4.4l-4.1-6c-.2-.3-.5-.6-.8-.7h-1.2V12h6.4v.7c-.5 0-1 0-1.4.1.1.5.3.7.5 1l2.8 4.2.3.3.1-.1c1.1-1.7 2.2-3.3 3-5.1 0-.1.1-.3 0-.4l-.1-.1-1.6-.1v-.7l4.5.2zm-26.7 10.9c-.4.6-1 .8-1.6 1-1.6.3-3.3.3-5 .3l-.2-.1a.55.55 0 0 1-.3-.5l-.2-2.6v-8.1l.1-.1c.4-.2.8-.1 1.3-.1V12h-6.3v.7c0 .1.4 0 .6 0 .4 0 .8 0 1.1.2.4.7.2 1.7.3 2.6v8c-.1.2.1.5-.1.7-.4.2-.9 0-1.3.1v.7h11.5l.1-.1.4-1.2c0-.3.3-.6.1-.9-.2 0-.3 0-.5.1zm-52.7-7.2c.6 1.4.7 3.2.1 4.6-.6 1.8-2.5 3.5-4.3 4-1.5.5-3.2.6-5 .6H104v-.6c.5 0 1.2.2 1.4-.4v-8.5c-.1-.9.1-1.7-.2-2.5-.1-.4-.6-.3-1-.4h-.9v-.7h7.6l2.1.2c2.3.3 4.6 1.5 5.7 3.7zm-2.7 3.4c0-1.6-.4-3-1.3-4.1-1.4-1.7-3.5-2.3-5.7-2.3-.2.1-.7-.1-.7.2v8.8c0 .7.1 1.3.2 2 .1.2.2.3.4.3 1.8 0 3.5-.3 4.9-1.2 1.5-.8 2.2-2.2 2.2-3.7zM138.1 9c.2-.3.3-.6.5-.8h1.6v-.9h-6.3-.1v.9s2.1-.3 2.5.2c0 .7-5.3 11.8-5.3 11.8h-.1c-1.3-2.3-2.4-4.7-3.7-7.1 0 0-2.6-4.8-2.3-4.9.7-.1 1.8-.1 1.8-.1v-.8-.1h-8.1v.9c.7.1 1.5-.1 2 .5 1.1 1.6 1.9 3.4 2.8 5.1l2.3 4.6 3.4 6.6c.1.2.3.5.6.5.2 0 .3-.2.4-.3l3-6.1 5-10zm45.3 14.4c-1.1.6-2.4.7-3.8.8H177a.55.55 0 0 1-.3-.5c-.3-1.6-.1-3.5-.2-5.2l.1-.1h3.5c.4.1.9 0 1.2.3.1.3.1.7.1.9h.8V16h-.7c-.1.2 0 .3-.1.4-.1.3.1.8-.3.9-1.4.3-3 .2-4.5.2h-.1V13c.2-.3.7-.1 1-.2 1.7 0 3.5 0 5 .7.2.1.2.3.2.5.1.2.2.2.4.2.1 0 .2-.2.2-.3l.3-1.9h-1.1-9-1.8l-.1.1c0 .2-.1.5 0 .7.5 0 1.1 0 1.5.1l.3.3c.2.7.1 1.7.2 2.3v8.7l-.1.2c-.4.2-.9 0-1.4.1v.7h11.3.2l.5-1.4c0-.3.2-.6 0-.8-.3-.3-.4.2-.7.4zm190.1 1c-.3-.6-.3-1.4-.3-1.9v-9.1c.2-.5 1-.1 1.4-.4v-.7h-6.3c-.1.2 0 .5 0 .7.6.1 1.4-.2 1.8.4.2.7.2 1.4.2 2.1l.1 7.8-.1 1c-.3.4-.9.1-1.4.2v.7h6.3.1v-.7c-.6.1-1.3.2-1.8-.1zm29.8 2.5l.2.4h-.4l-.2-.3c-.2-.4-.3-.5-.6-.5h-.2v.8h-.1v-1.9h.8c.5 0 .6.3.6.5a.47.47 0 0 1-.5.5h0c.1 0 .3.2.4.5zm-.2-1c0-.2-.1-.3-.3-.3h-.5v.6h.4c.2 0 .4-.1.4-.3zM11.1 8.6c-3.3 0-5.2 3.8-3.3 6.5l8.6 11.6 8.9-12.1h-5l-3.9 5.3-4.9-6.6h16.2c.3 1 .4 2.1.4 3.2 0 6.5-5.3 11.8-11.8 11.8S4.5 23 4.5 16.5 9.8 4.7 16.3 4.7c2.8 0 5.4 1 7.4 2.6h6.2C27.1 2.9 22.1 0 16.4 0 7.3 0 0 7.3 0 16.4s7.3 16.4 16.4 16.4 16.4-7.3 16.4-16.4c0-2.8-.7-5.5-2-7.8H11.1zm46.7 9.1h0c.1-.4.1-.6 0-.9h0H49c0 .3-.1.6 0 .9.8 0 1.6 0 2.4.1.4.1.5.5.5.8.2 1.6.1 3.1.2 5v.1c-1.2.5-2.6.7-4.1.6-3.1-.1-6.2-2.1-7.2-5.1-.7-2-.8-4.4.1-6.4 1.2-3 4.4-4.4 7.3-4.7 2.1-.2 4.3 0 5.9 1.2.6.2.2.9.8 1.2.2.1.4 0 .5-.1.4-.8.5-1.6.6-2.5-1.6-.6-3.5-.9-5.3-1-4.9-.1-9.4.9-12.6 4.7-1.9 2.4-2.1 5.8-1 8.6 1.8 3.9 6 5.4 10.1 5.4 2.5 0 4.8-.5 7.1-1 .7-.2 1.5-.3 2-.8.1-.1.1-.3 0-.4-.3-.3-.4-.7-.4-1.1v-4.2l.1-.1c.5-.4 1.2-.3 1.8-.3zm346.7 8.6a1.79 1.79 0 1 1-3.6 0 1.79 1.79 0 1 1 3.6 0zm-.3 0a1.54 1.54 0 0 0-1.5-1.5 1.54 1.54 0 0 0-1.5 1.5 1.54 1.54 0 0 0 1.5 1.5 1.54 1.54 0 0 0 1.5-1.5zm-301-14.5v.7c-.5 0-1-.1-1.4.1-.2.1 0 12.2 0 12.2 0 .1-.1.2-.2.2-.2 0-.3-.1-.4-.1l-1.4-1.3-6-5.6c-1.2-1.1-2.5-2.4-3.8-3.6v.1 7.3l.2 1.8c.1.2.1.4.3.5.5.2 1.1 0 1.6.1.1.2.1.5 0 .7H81.2h-.1v-.6c.5-.1 1 0 1.5-.1.1-.1.1-.2 0-.2l-1.5-3.6-.1-.2h-5.1c-.5 1.2-1.2 2.3-1.4 3.6 0 .1.1.2.2.3.6.2 1.2.1 1.9.1.1.2 0 .5 0 .7-1.6.1-3.3 0-5 0-.1-.2 0-.4 0-.7.5-.1 1.4.2 1.5-.6l3-6 2.9-5.8c.6-.2 1.2-.2 1.9-.4.1 0 .2 0 .3.1.3.4-.5.5-.4.9.6 1.8 1.4 3.5 2.1 5.2l2.2 4.8c.4.7.7 1.9 1.8 1.7h1.8c.1 0 .1-.1.1-.2v-6.2c-.1-1.2.1-2.9-.2-4-.2-.5-.5-1-1-1.1-.3-.1-.7-.1-1.1-.1v-.7c1.5-.1 2.8 0 4.3 0l5.6 5.3 4.2 3.9.1-.1V15c-.1-.7-.1-1.6-.3-2.3-.1-.4-1.1-.3-1.8-.3v-.7l4.6.1zm-22.6 7.5c-.6-1.6-1.3-3.1-2-4.6-.8 1.4-1.5 3-2.3 4.5v.1h4.3zM70 23.8c.4.3.8.3 1.3.3v.7h-3.5l-.6-.1c-1.4-1.3-2.4-2.9-3.4-4.4l-.9-1.4h-1.4V23c.1.4.1.9.5 1s1 0 1.5 0c.1.2 0 .7 0 .7h-6.4c-.1-.2-.1-.5 0-.7.4-.1 1 .1 1.4-.1l.1-.2-.1-8.5c-.1-.8 0-1.7-.2-2.4-.3-.5-.9-.3-1.5-.4h-.4v-.7h7.4c1.9.1 3.8.6 4.8 2.4a2.74 2.74 0 0 1-.4 3c-.7.9-1.8 1.1-2.8 1.4 1.5 1.9 2.8 3.7 4.6 5.3zm-4.3-6.9c.4-.8.3-1.8-.1-2.6-.8-1.4-4.2-1.6-4.2-1.4l.1 5.3c1.6.1 3.2 0 4.2-1.3zm93.8 5.9c.2.2 0 .4 0 .7-.2.5-.3 1-.6 1.5h-17.8l-.1-.1v-.6h.1c.5 0 1 .1 1.4-.1V24l-1.5-3.7-.1-.1h-5c-.5 1-1 2-1.3 3.1 0 .3-.2.6.1.8.6.2 1.2.1 1.9.1v.7h-5v-.7c.5-.1 1.3.1 1.5-.5l2.7-5.4 3.3-6.4c.6-.2 1.2-.3 1.9-.4.1 0 .3 0 .4.1s.1.2 0 .3c-.1.2-.4.3-.4.5.2 1.1.8 2.1 1.2 3.1l.9 2.1 2.3 5c.3.6.6 1.6 1.5 1.5.6 0 1.4.1 2-.1.2-.1.1-.4.1-.5v-8.9c0-.6-.1-1.2-.2-1.8-.1-.5-1.5-.3-1.9-.4V12h6.3v.7s-1-.1-1.3.1l-.1.2.1 9.3c.1.6-.1 1.4.4 1.8l.3.1c1.9 0 3.9.1 5.5-.5.4-.2.8-.4 1-.8 0-.1.2-.2.4-.1zm-18.9-3.4c-.6-1.5-1.2-3.1-1.9-4.6h-.1c-.8 1.5-1.6 3-2.2 4.6h4.2zm187.9-7.1h-4.6c-.1.2-.1.5 0 .7h1.5c.1 0 .3.1.3.2-.1.7-.3 1.3-.6 1.9l-3.2 6.4-.1.1-.1-.1-4.3-8.3c0-.1-.1-.2 0-.3.4-.1.8 0 1.2 0 .1-.1.1-.5.1-.7h-6c-.2.1-.1.4-.1.5 0 .3.3.2.6.2 1.2-.1 1.4 1.2 1.9 2l5.3 10.4.2.3c.2.1.4 0 .5-.1l5.6-11.4.6-1.1c.4-.2.9 0 1.3-.1-.1-.2.1-.4-.1-.6zm12.2 11.5c-1.5.5-3.2.5-4.9.5-.4-.1-1.1.1-1.2-.4-.3-1.8-.1-3.9-.2-5.2l.1-.2h1c1.1.1 2.5-.1 3.6.2.4.2.1.8.3 1 .2 0 .5.1.8 0v-3.4c-.2-.1-.5-.1-.8 0-.1.4.1 1-.3 1.3-1.4.3-3 .2-4.5.2l-.1-.1v-4.3c.1-.1.1-.2.2-.2 1.9 0 3.9-.1 5.5.5.4.1.3.5.6.7.1 0 .4.1.4-.1.1-.6.3-1.3.3-1.9l-11.8-.1h-.2c0 .2-.1.5 0 .7.5.1 1-.1 1.5.1.4.2.3.7.5 1.1v9.9c-.1.7-.9.3-1.4.4v.7h11.3.2l.5-1.4c0-.2.2-.5 0-.8-.6-.1-.8.8-1.4.8zm-29.9-1.4v-9.2c.2-.5 1-.1 1.4-.3 0-.2.1-.5-.1-.7h-6.2-.1v.7c.6.1 1.2-.1 1.7.2.3.5.3 1.1.3 1.7v8.6.8c-.3.3-.9.2-1.4.2v.7h6.3v-.7c-.1-.1-1.5.1-1.8-.4-.1-.4-.1-1-.1-1.6zm77.6-10h-4.9-6.8c-.3.1-.6 0-.9.1-.2.7-.6 1.3-.7 2.1.6.5.8-.6 1.4-.7 1.2-.5 2.6-.5 4.1-.5l.1.1.1 10.3c0 .3 0 .6-.1.9-.7.1-1.4 0-2.1.1 0 .2-.1.5 0 .7h7.6v-.7c-.7-.1-1.4 0-2-.1-.5-.2-.3-.8-.5-1.2v-10h0c.8 0 1.7 0 2.5.1.7.1 1.4.2 1.9.6.4.2.4.8.9.7.1 0 .2-.2.2-.3-.2-.9-.5-1.5-.8-2.2h0zm-24.7 5c-1.2-.5-3-.7-3.2-2.3a1.78 1.78 0 0 1 1-1.6c1.3-.7 3.2-.8 4.5 0 .6.2.4 1 1 .9.2 0 .2-.2.3-.3-.1-.6-.1-1.1-.2-1.7-2.5-.7-5.6-.6-7.7 1-.9.7-1.3 1.9-1.1 3 .5 2.4 3.2 2.7 5 3.4.9.4 1.8.6 2.5 1.4.3.4.4 1 .3 1.5-.2 1.1-1.4 1.7-2.3 1.9-1.8.3-3.7.1-5-1.1-.3-.3-.3-.9-.8-.7-.1 0-.2.1-.2.3.2.7.2 1.4.5 2 2.6.7 5.9 1 8.2-.4 1.3-.9 2.2-2.2 1.9-3.8-.4-2.3-2.9-2.9-4.7-3.5zm-6.7 7.2c.1.2.1.5 0 .7-1.2.1-2.4.1-3.6 0-.6-.1-1.1-.8-1.5-1.2-1.2-1.5-2.1-3.1-3.3-4.7-.4 0-.9-.1-1.3 0-.1 1.3 0 2.6 0 3.9.1.4 0 1 .5 1.2.5.1 1 0 1.5.1v.7H343v-.7c.4-.1 1 0 1.3-.1l.1-.4v-9.4c-.1-.4.1-1.2-.5-1.4-.4-.1-1 0-1.5-.1-.1-.2-.1-.5 0-.7l.1-.1c2.9.2 5.8-.2 8.6.2 1.5.3 3.2 1.2 3.6 2.9.2 1.1-.3 2.2-1.2 2.8-.6.4-1.4.6-2.2.8l.1.2c1.3 1.5 2.4 3.3 3.9 4.6.4.4 1 .7 1.7.7zm-5.6-7.2c.5-.7.4-1.8 0-2.6-.8-1.3-2.3-1.7-3.9-1.6-.1 0-.2 0-.2.1v5.2c1.5.1 3.2.2 4.1-1.1zM301 12.2c-.1.2-.1.5 0 .7.5.1 1.1 0 1.6.2.4.5.2 1.3.4 1.9 0 1.8.1 4.1.1 6.2l-.1.1-4.6-4.3-5-4.7c-1.5-.1-2.7-.1-4.1-.1l-.2.1c0 .2-.1.5.1.7.5 0 .9 0 1.3.2.5.4.8 1 .8 1.6v9.3l-.1.2c-.4.2-.8.1-1.3.1v.7h4.6v-.7c-.5 0-1 .1-1.5 0-.2-.1-.3-.3-.4-.5-.3-3.4-.2-5.3-.2-9h.1l4.3 3.9 6.8 6.4.3.2c.1 0 .3 0 .4-.1V13.2l.1-.1c.4-.1.9 0 1.3-.1 0-.2.1-.5-.1-.7-1.7 0-3-.1-4.6-.1zm-60.1 12.1v.7h-6.2v-.7c.5 0 1 0 1.4-.1v-.4l-1.4-3.4-.1-.1h-5l-.1.2c-.5 1.1-1.1 2.2-1.3 3.4.1.4.5.3.8.3h1.2v.7h-5v-.7c.5-.1 1.2.2 1.4-.4l2.6-5.2 3-5.8.4-.9c.6-.2 1.3-.2 1.9-.4.1 0 .3 0 .4.2.1.4-.6.5-.4.9l.5 1.5 3.6 8.2c.3.6.6 1.4 1.2 1.7l1.1.3zm-6.7-4.9c-.6-1.5-1.2-3-1.9-4.5-.9 1.4-1.6 2.9-2.3 4.4v.1a29.43 29.43 0 0 0 4.2 0zm166.1 5.3c-.5 0-1 0-1.4-.1-.5-.2-.4-.8-.5-1.2v-3.7l3.7-5.6.6-.8c.3-.1.7-.2 1.1-.1.1-.2.1-.5 0-.7-1.6 0-2.9-.1-4.5 0l-.1.1v.7c.5.1 1.1 0 1.6.1.2.1 0 .4 0 .5-.8 1.7-1.9 3.3-3 4.9h-.1c-1.2-1.7-2.3-3.4-3.4-5.1 0-.1-.2-.2-.1-.4l1.3-.1c.1-.2 0-.5 0-.7h-6.2l-.1.1v.7c.3.1.7 0 1.1.1s.6.5.8.8l4 5.9v4.5l-.1.2c-.4.2-.9 0-1.3.1v.7h6.3c.4-.5.3-.6.3-.9zM209.1 13.8c-1.1-.5-2.4-.7-3.3-1.7-.6-.5-.7-1.4-.5-2.1.7-1.7 2.5-2.2 4.2-2.2 1.2 0 2.2.2 3.2.7.6.2.6.8 1 1.3.2.1.5 0 .7-.1.1-.8-.1-1.7-.1-2.5-2.2-.7-5-.7-7.2-.2-1.7.6-3.9 1.4-4.6 3.4-.4 1.3-.2 3 .7 4 2.2 2.3 5.3 2.3 7.9 3.5 1.1.4 2 1.4 2 2.6.1 1.3-1.1 2.4-2.2 2.9-1.3.4-2.7.7-4.1.4-1.6-.3-3.4-.7-4.1-2.3-.1-.3-.5-.3-.7-.3s-.2.2-.3.4c.2.9.3 1.8.6 2.7 3.7 1 8.5 1.4 11.7-.9 1.5-1.2 2.4-2.9 2.1-4.8-.7-3.4-4.4-3.8-7-4.8zm81-5h0c.1-.3.1-.7 0-.9H284c-.1.3-.1.7 0 .9h1.6c.3 0 .6.1.7.4.3.9.2 1.9.4 2.8v7.5c-.1.7-.3 1.5-.6 2.2-.7 1.6-2.4 2.3-3.9 2.7-1.8.3-3.8.2-5.3-.7-1.6-1.1-1.9-2.9-2-4.7V9.1l.1-.2c.6-.2 1.2 0 1.8-.1.1-.3.1-.7 0-.9h-8.5-.1v.9l.1.1c.7 0 1.4-.1 2 0l.3.2c.3.8.3 1.7.4 2.5v7.7c.1.9.1 1.8.4 2.6.8 2.5 3.5 3.5 5.8 3.8 2.4.3 4.9.2 7-.7l1.2-.7c1.7-1.1 2.7-2.8 2.9-4.6V9l.1-.1c.5-.2 1.1-.1 1.7-.1zm-67.7 15.5c-.5-.1-.4-.7-.5-1.2V13h0c1.5-.1 3 0 4.2.6.5.1.5.9 1.1.8.1 0 .2-.1.3-.2l-.8-2c-1.2-.1-2.5 0-3.7-.1h-8.1c-.3.1-.7 0-1 .1l-.6 1.7c-.1.1-.1.4 0 .5.7.3.8-.7 1.4-.8 1.3-.5 2.8-.6 4.2-.5l.1.1V24l-.1.2c-.7.2-1.3.1-2.1.1v.7h7.7v-.7h-2.1zm42.2-.8c-1.8.9-4.1.7-6.3.7-.2-.1-.2-.3-.3-.4-.2-1.6-.2-3.7-.1-5.2l.1-.1c1.5 0 3 0 4.4.1.6.1.3.8.4 1.1.2 0 .5.1.8 0 0-1.2.1-2.2 0-3.5h-.6c-.1 0-.1 0-.1.1-.1.4.1.9-.2 1.2-1.4.4-3 .2-4.6.3l-.1-.1v-4.3l.1-.2c1.7-.1 3.3 0 4.9.2.4.2 1.1.2 1.1.8 0 .2.2.2.4.2s.2-.1.3-.2c.1-.6.2-1.2.2-1.9h-1.3-10.6c-.1.2-.1.5-.1.7.5.1 1.1 0 1.5.1l.2.2c.3.7.2 1.7.3 2.5v6.8 1.7c-.3.4-.9.2-1.4.3v.7h11.5l-.1-.3.5-1.3c0-.3.2-.5 0-.8-.4-.2-.6.4-.9.6zm-13.8-11.4h-11.1c-.3.1-.7-.1-.9.1l-.6 1.6c0 .1-.2.4 0 .5.6.3.7-.4 1.1-.7 1.3-.6 2.7-.7 4.2-.7.1 0 .2 0 .3.1v10.8l-.1.3c-.7.2-1.4.1-2.1.1v.7h7.6v-.7c-.7 0-1.4 0-2.1-.1-.4-.2-.2-.7-.4-1V12.9l.1-.1c.8 0 1.6 0 2.4.1.7.1 1.4.2 2 .6.4.2.4.8.9.7.1 0 .3-.1.3-.2-.2-.7-.5-1.4-.8-2l-.8.1z" fill="#fff"/></svg>